<svg width="57" height="51" viewBox="0 0 57 51" fill="none" xmlns="http://www.w3.org/2000/svg">
<path d="M8.14288 25.0827H20.3572V29.1541H8.14288V25.0827ZM8.14288 16.9398H28.5V21.0112H8.14288V16.9398ZM8.14288 8.79696H28.5V12.8684H8.14288V8.79696Z" fill="black"/>
<path d="M24.4286 45.4398H4.07143V4.72553H52.9286V25.0827H57V4.72553C57 3.64572 56.571 2.61014 55.8075 1.8466C55.044 1.08306 54.0084 0.654106 52.9286 0.654106H4.07143C2.99162 0.654106 1.95603 1.08306 1.19249 1.8466C0.428953 2.61014 0 3.64572 0 4.72553V45.4398C0 46.5196 0.428953 47.5552 1.19249 48.3188C1.95603 49.0823 2.99162 49.5113 4.07143 49.5113H24.4286V45.4398Z" fill="black"/>
<path d="M40.7143 44.6052L35.4418 39.3327L32.5714 42.203L40.7143 50.3459L57 34.0602L54.1296 31.1898L40.7143 44.6052Z" fill="black"/>
</svg>
